<?xml version="1.0" ?><svg style="enable-background:new 0 0 1080 1080;" version="1.1" viewBox="0 0 1080 1080" xml:space="preserve" xmlns="http://www.w3.org/2000/svg" xmlns:xlink="http://www.w3.org/1999/xlink"><g id="_x30_1_Net"/><g id="_x30_2_Android"/><g id="Layer_3"><g><path d="M333.439,711.101    l87.696,78.841l-58.079,168.351C356.511,977.268,338.637,990,318.562,990H108.934c-32.064,0-54.724-31.349-44.687-61.791    l258.274-782.66C333.467,112.412,364.458,90,399.355,90h1.43c19.057,4.262,79.611,170.001,140.577,351.442l-82.223,238.31    l-115.608,3.685C329.259,683.904,322.825,701.531,333.439,711.101z" style="fill:none;stroke:#00cd81;stroke-width:13;stroke-linecap:round;stroke-linejoin:round;"/><path d="M962.735,990H643.687    c0,0,84.176,0,48.179-78.731c0,0-31.624-103.26-74.221-236.55c-23.264-72.791-49.829-154.519-76.283-233.277    C480.396,260.001,419.842,94.262,400.785,90h272.382c32.752,0,61.901,20.734,72.654,51.671l269.219,774.768    C1027.551,952.436,1000.822,990,962.735,990z" style="fill:none;stroke:#00cd81;stroke-width:13;stroke-linecap:round;stroke-linejoin:round;"/><path d="M643.687,990    L421.135,789.942l-87.696-78.841c-10.614-9.57-4.18-27.197,10.092-27.664l115.608-3.685l158.507-5.032    c30.707,96.087,55.712,176.568,67.279,214.009c3.442,11.141,7.361,22.103,11.233,33.102C720.156,990,643.687,990,643.687,990z" style="fill:none;stroke:#00cd81;stroke-width:13;stroke-linecap:round;stroke-linejoin:round;"/></g></g><g id="Layer_4"/><g id="Layer_5"/><g id="Layer_6"/><g id="Layer_7"/><g id="Layer_8"/><g id="Layer_9"/><g id="Layer_10"/><g id="Layer_11"/><g id="Layer_12"/><g id="Layer_13"/><g id="Layer_14"/><g id="Layer_15"/><g id="Layer_16"/><g id="Layer_17"/><g id="Layer_18"/><g id="Layer_19"/><g id="Layer_20"/><g id="Layer_21"/></svg>